<svg width="183" height="17" xmlns="http://www.w3.org/2000/svg" version="1.1">

 <g>
  <title>Layer 1</title>
  <g id="svg_1" text-anchor="none" font-size="none" font-weight="none" font-family="none" stroke-dashoffset="0" stroke-miterlimit="10" fill-rule="nonzero" fill="#faebd7">
   <g id="svg_2" transform="translate(-0.00416 25.6) scale(2.27556 2.27556)">
    <path id="svg_3" d="m3.24792,-7.84129c-0.27637,0 -0.5,0.22363 -0.5,0.5c0,0.27637 0.22363,0.5 0.5,0.5c1.11133,0 2.01563,-0.90381 2.01563,-2.01465c0,-1.32031 -1.07422,-2.39404 -2.39453,-2.39404c-1.58105,0 -2.86719,1.28613 -2.86719,2.86719c0,1.90771 1.55176,3.45947 3.45898,3.45947l27.66211,0c0.27637,0 0.5,-0.22363 0.5,-0.5c0,-0.27637 -0.22363,-0.5 -0.5,-0.5l-27.66211,0c-1.35547,0 -2.45898,-1.10352 -2.45898,-2.45947c0,-1.02979 0.83789,-1.86719 1.86719,-1.86719c0.76855,0 1.39453,0.62549 1.39453,1.39404c0,0.55957 -0.45605,1.01465 -1.01562,1.01465l-0.00001,0z"/>
    <path id="svg_4" d="m77.75573,-11.24998c-1.32031,0 -2.39453,1.07373 -2.39453,2.39404c0,1.11084 0.9043,2.01465 2.01563,2.01465c0.27637,0 0.5,-0.22363 0.5,-0.5c0,-0.27637 -0.22363,-0.5 -0.5,-0.5c-0.55957,0 -1.01562,-0.45508 -1.01562,-1.01465c0,-0.76855 0.62598,-1.39404 1.39453,-1.39404c1.0293,0 1.86719,0.8374 1.86719,1.86719c0,1.35596 -1.10352,2.45947 -2.45898,2.45947l-27.66211,0c-0.27637,0 -0.5,0.22363 -0.5,0.5c0,0.27637 0.22363,0.5 0.5,0.5l27.66211,0c1.90723,0 3.45898,-1.55176 3.45898,-3.45947c0,-1.58105 -1.28613,-2.86719 -2.86719,-2.86719l-0.00001,0z"/>
    <path id="svg_5" d="m38.75671,-3.86814c0.09766,0.09766 0.22559,0.14648 0.35352,0.14648c0.12793,0 0.25586,-0.04883 0.35352,-0.14648l0.84863,-0.84845l0.84863,0.84845c0.09766,0.09766 0.22559,0.14648 0.35352,0.14648c0.12793,0 0.25586,-0.04883 0.35352,-0.14648c0.19531,-0.19531 0.19531,-0.51172 0,-0.70703l-0.84857,-0.84839l0.84857,-0.84839c0.19531,-0.19531 0.19531,-0.51172 0,-0.70703c-0.19531,-0.19531 -0.51172,-0.19531 -0.70703,0l-0.84863,0.84845l-0.84863,-0.84845c-0.19531,-0.19531 -0.51172,-0.19531 -0.70703,0c-0.19531,0.19531 -0.19531,0.51172 0,0.70703l0.84857,0.84839l-0.84857,0.84839c-0.19531,0.19531 -0.19531,0.51172 0,0.70703l-0.00002,0z"/>
    <path id="svg_6" d="m32.63268,-3.86814c0.09766,0.09766 0.22559,0.14648 0.35352,0.14648c0.12793,0 0.25586,-0.04883 0.35352,-0.14648l0.84863,-0.84845l0.84863,0.84845c0.09766,0.09766 0.22559,0.14648 0.35352,0.14648c0.12793,0 0.25586,-0.04883 0.35352,-0.14648c0.19531,-0.19531 0.19531,-0.51172 0,-0.70703l-0.84857,-0.84839l0.84857,-0.84839c0.19531,-0.19531 0.19531,-0.51172 0,-0.70703c-0.19531,-0.19531 -0.51172,-0.19531 -0.70703,0l-0.84863,0.84845l-0.84863,-0.84845c-0.19531,-0.19531 -0.51172,-0.19531 -0.70703,0c-0.19531,0.19531 -0.19531,0.51172 0,0.70703l0.84857,0.84839l-0.84857,0.84839c-0.19531,0.19531 -0.19531,0.51172 0,0.70703l-0.00002,0z"/>
    <path id="svg_7" d="m44.88073,-3.86814c0.09766,0.09766 0.22559,0.14648 0.35352,0.14648c0.12793,0 0.25586,-0.04883 0.35352,-0.14648l0.84863,-0.84845l0.84863,0.84845c0.09766,0.09766 0.22559,0.14648 0.35352,0.14648c0.12793,0 0.25586,-0.04883 0.35352,-0.14648c0.19531,-0.19531 0.19531,-0.51172 0,-0.70703l-0.84857,-0.84839l0.84857,-0.84839c0.19531,-0.19531 0.19531,-0.51172 0,-0.70703c-0.19531,-0.19531 -0.51172,-0.19531 -0.70703,0l-0.84863,0.84845l-0.84863,-0.84845c-0.19531,-0.19531 -0.51172,-0.19531 -0.70703,0c-0.19531,0.19531 -0.19531,0.51172 0,0.70703l0.84857,0.84839l-0.84857,0.84839c-0.19531,0.19531 -0.19531,0.51172 0,0.70703l-0.00002,0z"/>
   </g>
  </g>
 </g>
</svg>