<svg version="1.1" xmlns="http://www.w3.org/2000/svg" xmlns:xlink="http://www.w3.org/1999/xlink" width="90px" height="112.5px" viewBox="0,0,204.79167,256"><g fill="#faebd7" fill-rule="nonzero" stroke="none" stroke-width="1" stroke-linecap="butt" stroke-linejoin="miter" stroke-miterlimit="10" stroke-dasharray="" stroke-dashoffset="0" font-family="none" font-weight="none" font-size="none" text-anchor="none" style="mix-blend-mode: normal"><g transform="translate(-0.00416,25.6) scale(2.27556,2.27556)"><path d="M7.93555,44.64453c-0.27637,0 -0.5,0.22363 -0.5,0.5c0,0.27637 0.22363,0.5 0.5,0.5c1.11133,0 2.01563,-0.90381 2.01563,-2.01465c0,-1.32031 -1.07422,-2.39404 -2.39453,-2.39404c-1.58105,0 -2.86719,1.28613 -2.86719,2.86719c0,1.90771 1.55176,3.45947 3.45898,3.45947h27.66211c0.27637,0 0.5,-0.22363 0.5,-0.5c0,-0.27637 -0.22363,-0.5 -0.5,-0.5h-27.66211c-1.35547,0 -2.45898,-1.10352 -2.45898,-2.45947c0,-1.02979 0.83789,-1.86719 1.86719,-1.86719c0.76855,0 1.39453,0.62549 1.39453,1.39404c0,0.55957 -0.45605,1.01465 -1.01562,1.01465z"></path><path d="M82.44336,41.23584c-1.32031,0 -2.39453,1.07373 -2.39453,2.39404c0,1.11084 0.9043,2.01465 2.01563,2.01465c0.27637,0 0.5,-0.22363 0.5,-0.5c0,-0.27637 -0.22363,-0.5 -0.5,-0.5c-0.55957,0 -1.01562,-0.45508 -1.01562,-1.01465c0,-0.76855 0.62598,-1.39404 1.39453,-1.39404c1.0293,0 1.86719,0.8374 1.86719,1.86719c0,1.35596 -1.10352,2.45947 -2.45898,2.45947h-27.66211c-0.27637,0 -0.5,0.22363 -0.5,0.5c0,0.27637 0.22363,0.5 0.5,0.5h27.66211c1.90723,0 3.45898,-1.55176 3.45898,-3.45947c0,-1.58105 -1.28613,-2.86719 -2.86719,-2.86719z"></path><path d="M43.44434,48.61768c0.09766,0.09766 0.22559,0.14648 0.35352,0.14648c0.12793,0 0.25586,-0.04883 0.35352,-0.14648l0.84863,-0.84845l0.84863,0.84845c0.09766,0.09766 0.22559,0.14648 0.35352,0.14648c0.12793,0 0.25586,-0.04883 0.35352,-0.14648c0.19531,-0.19531 0.19531,-0.51172 0,-0.70703l-0.84857,-0.84839l0.84857,-0.84839c0.19531,-0.19531 0.19531,-0.51172 0,-0.70703c-0.19531,-0.19531 -0.51172,-0.19531 -0.70703,0l-0.84863,0.84845l-0.84863,-0.84845c-0.19531,-0.19531 -0.51172,-0.19531 -0.70703,0c-0.19531,0.19531 -0.19531,0.51172 0,0.70703l0.84857,0.84839l-0.84857,0.84839c-0.19531,0.19531 -0.19531,0.51172 0,0.70703z"></path><path d="M37.32031,48.61768c0.09766,0.09766 0.22559,0.14648 0.35352,0.14648c0.12793,0 0.25586,-0.04883 0.35352,-0.14648l0.84863,-0.84845l0.84863,0.84845c0.09766,0.09766 0.22559,0.14648 0.35352,0.14648c0.12793,0 0.25586,-0.04883 0.35352,-0.14648c0.19531,-0.19531 0.19531,-0.51172 0,-0.70703l-0.84857,-0.84839l0.84857,-0.84839c0.19531,-0.19531 0.19531,-0.51172 0,-0.70703c-0.19531,-0.19531 -0.51172,-0.19531 -0.70703,0l-0.84863,0.84845l-0.84863,-0.84845c-0.19531,-0.19531 -0.51172,-0.19531 -0.70703,0c-0.19531,0.19531 -0.19531,0.51172 0,0.70703l0.84857,0.84839l-0.84857,0.84839c-0.19531,0.19531 -0.19531,0.51172 0,0.70703z"></path><path d="M49.56836,48.61768c0.09766,0.09766 0.22559,0.14648 0.35352,0.14648c0.12793,0 0.25586,-0.04883 0.35352,-0.14648l0.84863,-0.84845l0.84863,0.84845c0.09766,0.09766 0.22559,0.14648 0.35352,0.14648c0.12793,0 0.25586,-0.04883 0.35352,-0.14648c0.19531,-0.19531 0.19531,-0.51172 0,-0.70703l-0.84857,-0.84839l0.84857,-0.84839c0.19531,-0.19531 0.19531,-0.51172 0,-0.70703c-0.19531,-0.19531 -0.51172,-0.19531 -0.70703,0l-0.84863,0.84845l-0.84863,-0.84845c-0.19531,-0.19531 -0.51172,-0.19531 -0.70703,0c-0.19531,0.19531 -0.19531,0.51172 0,0.70703l0.84857,0.84839l-0.84857,0.84839c-0.19531,0.19531 -0.19531,0.51172 0,0.70703z"></path></g></g></svg>